<mxfile host="app.diagrams.net" modified="2024-05-12T14:19:37.205Z" agent="Mozilla/5.0 (Macintosh; Intel Mac OS X 10_15_7) AppleWebKit/537.36 (KHTML, like Gecko) Chrome/124.0.0.0 Safari/537.36" etag="KQBO_B3G81Oqu1CdR1uV" version="24.4.0" type="github">
  <diagram name="第 1 页" id="9UD54eOgBgQ9BTuC3BXS">
    <mxGraphModel dx="954" dy="-638" grid="1" gridSize="10" guides="1" tooltips="1" connect="1" arrows="1" fold="1" page="1" pageScale="1" pageWidth="827" pageHeight="1169" math="0" shadow="0">
      <root>
        <mxCell id="0" />
        <mxCell id="1" parent="0" />
        <mxCell id="DI8kiA9vDWtVcM_8yvdp-1" style="edgeStyle=orthogonalEdgeStyle;rounded=0;sketch=1;hachureGap=4;jiggle=2;curveFitting=1;orthogonalLoop=1;jettySize=auto;html=1;exitX=0.5;exitY=0;exitDx=0;exitDy=0;entryX=0;entryY=0.5;entryDx=0;entryDy=0;fontFamily=Architects Daughter;fontSource=https%3A%2F%2Ffonts.googleapis.com%2Fcss%3Ffamily%3DArchitects%2BDaughter;" edge="1" parent="1" source="DI8kiA9vDWtVcM_8yvdp-4" target="DI8kiA9vDWtVcM_8yvdp-22">
          <mxGeometry relative="1" as="geometry" />
        </mxCell>
        <mxCell id="DI8kiA9vDWtVcM_8yvdp-2" style="edgeStyle=orthogonalEdgeStyle;rounded=0;sketch=1;hachureGap=4;jiggle=2;curveFitting=1;orthogonalLoop=1;jettySize=auto;html=1;exitX=1;exitY=0.5;exitDx=0;exitDy=0;entryX=0;entryY=0.5;entryDx=0;entryDy=0;fontFamily=Architects Daughter;fontSource=https%3A%2F%2Ffonts.googleapis.com%2Fcss%3Ffamily%3DArchitects%2BDaughter;" edge="1" parent="1" source="DI8kiA9vDWtVcM_8yvdp-4" target="DI8kiA9vDWtVcM_8yvdp-9">
          <mxGeometry relative="1" as="geometry" />
        </mxCell>
        <mxCell id="DI8kiA9vDWtVcM_8yvdp-3" value="&lt;font style=&quot;font-size: 18px;&quot;&gt;&lt;b&gt;ETL&lt;/b&gt;&lt;/font&gt;" style="edgeLabel;html=1;align=center;verticalAlign=middle;resizable=0;points=[];sketch=1;hachureGap=4;jiggle=2;curveFitting=1;fontFamily=Architects Daughter;fontSource=https%3A%2F%2Ffonts.googleapis.com%2Fcss%3Ffamily%3DArchitects%2BDaughter;" vertex="1" connectable="0" parent="DI8kiA9vDWtVcM_8yvdp-2">
          <mxGeometry x="0.0545" relative="1" as="geometry">
            <mxPoint as="offset" />
          </mxGeometry>
        </mxCell>
        <mxCell id="DI8kiA9vDWtVcM_8yvdp-4" value="&lt;div&gt;&lt;span style=&quot;font-size: 18px;&quot;&gt;ODS&lt;/span&gt;&lt;/div&gt;" style="rounded=1;whiteSpace=wrap;html=1;sketch=1;hachureGap=4;jiggle=2;curveFitting=1;fontFamily=Architects Daughter;fontSource=https%3A%2F%2Ffonts.googleapis.com%2Fcss%3Ffamily%3DArchitects%2BDaughter;fillColor=#fff2cc;strokeColor=#d6b656;gradientColor=#ffd966;" vertex="1" parent="1">
          <mxGeometry x="710" y="1609" width="130" height="90" as="geometry" />
        </mxCell>
        <mxCell id="DI8kiA9vDWtVcM_8yvdp-5" style="edgeStyle=orthogonalEdgeStyle;rounded=0;sketch=1;hachureGap=4;jiggle=2;curveFitting=1;orthogonalLoop=1;jettySize=auto;html=1;exitX=1;exitY=0.5;exitDx=0;exitDy=0;entryX=0;entryY=0.5;entryDx=0;entryDy=0;fontFamily=Architects Daughter;fontSource=https%3A%2F%2Ffonts.googleapis.com%2Fcss%3Ffamily%3DArchitects%2BDaughter;" edge="1" parent="1" source="DI8kiA9vDWtVcM_8yvdp-9" target="DI8kiA9vDWtVcM_8yvdp-12">
          <mxGeometry relative="1" as="geometry" />
        </mxCell>
        <mxCell id="DI8kiA9vDWtVcM_8yvdp-6" value="&lt;font style=&quot;font-size: 18px;&quot;&gt;&lt;b&gt;轻度汇总&lt;/b&gt;&lt;/font&gt;" style="edgeLabel;html=1;align=center;verticalAlign=middle;resizable=0;points=[];sketch=1;hachureGap=4;jiggle=2;curveFitting=1;fontFamily=Architects Daughter;fontSource=https%3A%2F%2Ffonts.googleapis.com%2Fcss%3Ffamily%3DArchitects%2BDaughter;" vertex="1" connectable="0" parent="DI8kiA9vDWtVcM_8yvdp-5">
          <mxGeometry x="-0.3043" y="-4" relative="1" as="geometry">
            <mxPoint x="15" y="-4" as="offset" />
          </mxGeometry>
        </mxCell>
        <mxCell id="DI8kiA9vDWtVcM_8yvdp-7" style="edgeStyle=orthogonalEdgeStyle;rounded=0;sketch=1;hachureGap=4;jiggle=2;curveFitting=1;orthogonalLoop=1;jettySize=auto;html=1;exitX=0.75;exitY=0;exitDx=0;exitDy=0;entryX=0.25;entryY=0;entryDx=0;entryDy=0;fontFamily=Architects Daughter;fontSource=https%3A%2F%2Ffonts.googleapis.com%2Fcss%3Ffamily%3DArchitects%2BDaughter;" edge="1" parent="1" source="DI8kiA9vDWtVcM_8yvdp-9" target="DI8kiA9vDWtVcM_8yvdp-15">
          <mxGeometry relative="1" as="geometry" />
        </mxCell>
        <mxCell id="DI8kiA9vDWtVcM_8yvdp-8" value="&lt;font style=&quot;font-size: 18px;&quot;&gt;&lt;b&gt;预聚合&lt;/b&gt;&lt;/font&gt;" style="edgeLabel;html=1;align=center;verticalAlign=middle;resizable=0;points=[];sketch=1;hachureGap=4;jiggle=2;curveFitting=1;fontFamily=Architects Daughter;fontSource=https%3A%2F%2Ffonts.googleapis.com%2Fcss%3Ffamily%3DArchitects%2BDaughter;" vertex="1" connectable="0" parent="DI8kiA9vDWtVcM_8yvdp-7">
          <mxGeometry x="0.249" y="1" relative="1" as="geometry">
            <mxPoint x="-118" as="offset" />
          </mxGeometry>
        </mxCell>
        <mxCell id="DI8kiA9vDWtVcM_8yvdp-9" value="&lt;div&gt;&lt;span style=&quot;font-size: 18px;&quot;&gt;DWD&lt;/span&gt;&lt;/div&gt;" style="rounded=1;whiteSpace=wrap;html=1;sketch=1;hachureGap=4;jiggle=2;curveFitting=1;fontFamily=Architects Daughter;fontSource=https%3A%2F%2Ffonts.googleapis.com%2Fcss%3Ffamily%3DArchitects%2BDaughter;fillColor=#d5e8d4;strokeColor=#82b366;gradientColor=#97d077;" vertex="1" parent="1">
          <mxGeometry x="950" y="1609" width="130" height="90" as="geometry" />
        </mxCell>
        <mxCell id="DI8kiA9vDWtVcM_8yvdp-10" style="edgeStyle=orthogonalEdgeStyle;rounded=0;sketch=1;hachureGap=4;jiggle=2;curveFitting=1;orthogonalLoop=1;jettySize=auto;html=1;exitX=1;exitY=0.5;exitDx=0;exitDy=0;fontFamily=Architects Daughter;fontSource=https%3A%2F%2Ffonts.googleapis.com%2Fcss%3Ffamily%3DArchitects%2BDaughter;" edge="1" parent="1" source="DI8kiA9vDWtVcM_8yvdp-12" target="DI8kiA9vDWtVcM_8yvdp-15">
          <mxGeometry relative="1" as="geometry" />
        </mxCell>
        <mxCell id="DI8kiA9vDWtVcM_8yvdp-11" value="&lt;font style=&quot;font-size: 18px;&quot;&gt;&lt;b&gt;预聚合&lt;/b&gt;&lt;/font&gt;" style="edgeLabel;html=1;align=center;verticalAlign=middle;resizable=0;points=[];sketch=1;hachureGap=4;jiggle=2;curveFitting=1;fontFamily=Architects Daughter;fontSource=https%3A%2F%2Ffonts.googleapis.com%2Fcss%3Ffamily%3DArchitects%2BDaughter;" vertex="1" connectable="0" parent="DI8kiA9vDWtVcM_8yvdp-10">
          <mxGeometry x="-0.0087" y="2" relative="1" as="geometry">
            <mxPoint x="1" as="offset" />
          </mxGeometry>
        </mxCell>
        <mxCell id="DI8kiA9vDWtVcM_8yvdp-12" value="&lt;div&gt;&lt;span style=&quot;font-size: 18px;&quot;&gt;DWS&lt;/span&gt;&lt;/div&gt;" style="rounded=1;whiteSpace=wrap;html=1;sketch=1;hachureGap=4;jiggle=2;curveFitting=1;fontFamily=Architects Daughter;fontSource=https%3A%2F%2Ffonts.googleapis.com%2Fcss%3Ffamily%3DArchitects%2BDaughter;fillColor=#ffcd28;strokeColor=#d79b00;gradientColor=#ffa500;" vertex="1" parent="1">
          <mxGeometry x="1195" y="1609" width="130" height="90" as="geometry" />
        </mxCell>
        <mxCell id="DI8kiA9vDWtVcM_8yvdp-13" style="edgeStyle=orthogonalEdgeStyle;rounded=0;sketch=1;hachureGap=4;jiggle=2;curveFitting=1;orthogonalLoop=1;jettySize=auto;html=1;exitX=0.5;exitY=1;exitDx=0;exitDy=0;fontFamily=Architects Daughter;fontSource=https%3A%2F%2Ffonts.googleapis.com%2Fcss%3Ffamily%3DArchitects%2BDaughter;entryX=0.934;entryY=-0.014;entryDx=0;entryDy=0;entryPerimeter=0;" edge="1" parent="1" source="DI8kiA9vDWtVcM_8yvdp-15" target="DI8kiA9vDWtVcM_8yvdp-23">
          <mxGeometry relative="1" as="geometry" />
        </mxCell>
        <mxCell id="DI8kiA9vDWtVcM_8yvdp-14" value="&lt;h3&gt;&lt;font style=&quot;font-size: 18px;&quot;&gt;前置计算&lt;/font&gt;&lt;/h3&gt;" style="edgeLabel;html=1;align=center;verticalAlign=middle;resizable=0;points=[];sketch=1;hachureGap=4;jiggle=2;curveFitting=1;fontFamily=Architects Daughter;fontSource=https%3A%2F%2Ffonts.googleapis.com%2Fcss%3Ffamily%3DArchitects%2BDaughter;" vertex="1" connectable="0" parent="DI8kiA9vDWtVcM_8yvdp-13">
          <mxGeometry x="-0.0657" y="-1" relative="1" as="geometry">
            <mxPoint y="-1" as="offset" />
          </mxGeometry>
        </mxCell>
        <mxCell id="DI8kiA9vDWtVcM_8yvdp-15" value="&lt;div&gt;&lt;span style=&quot;font-size: 18px;&quot;&gt;ADM&lt;/span&gt;&lt;/div&gt;" style="rounded=1;whiteSpace=wrap;html=1;sketch=1;hachureGap=4;jiggle=2;curveFitting=1;fontFamily=Architects Daughter;fontSource=https%3A%2F%2Ffonts.googleapis.com%2Fcss%3Ffamily%3DArchitects%2BDaughter;fillColor=#f8cecc;strokeColor=#b85450;gradientColor=#ea6b66;" vertex="1" parent="1">
          <mxGeometry x="1440" y="1609" width="130" height="90" as="geometry" />
        </mxCell>
        <mxCell id="DI8kiA9vDWtVcM_8yvdp-16" style="edgeStyle=orthogonalEdgeStyle;rounded=0;sketch=1;hachureGap=4;jiggle=2;curveFitting=1;orthogonalLoop=1;jettySize=auto;html=1;exitX=0.5;exitY=1;exitDx=0;exitDy=0;entryX=0.5;entryY=0;entryDx=0;entryDy=0;fontFamily=Architects Daughter;fontSource=https%3A%2F%2Ffonts.googleapis.com%2Fcss%3Ffamily%3DArchitects%2BDaughter;" edge="1" parent="1" source="DI8kiA9vDWtVcM_8yvdp-22" target="DI8kiA9vDWtVcM_8yvdp-12">
          <mxGeometry relative="1" as="geometry" />
        </mxCell>
        <mxCell id="DI8kiA9vDWtVcM_8yvdp-17" value="&lt;font style=&quot;font-size: 18px;&quot;&gt;Join&lt;/font&gt;" style="edgeLabel;html=1;align=center;verticalAlign=middle;resizable=0;points=[];sketch=1;hachureGap=4;jiggle=2;curveFitting=1;fontFamily=Architects Daughter;fontSource=https%3A%2F%2Ffonts.googleapis.com%2Fcss%3Ffamily%3DArchitects%2BDaughter;" vertex="1" connectable="0" parent="DI8kiA9vDWtVcM_8yvdp-16">
          <mxGeometry x="-0.5068" y="2" relative="1" as="geometry">
            <mxPoint x="-2" as="offset" />
          </mxGeometry>
        </mxCell>
        <mxCell id="DI8kiA9vDWtVcM_8yvdp-18" style="edgeStyle=orthogonalEdgeStyle;rounded=0;sketch=1;hachureGap=4;jiggle=2;curveFitting=1;orthogonalLoop=1;jettySize=auto;html=1;exitX=0.75;exitY=1;exitDx=0;exitDy=0;entryX=0.5;entryY=0;entryDx=0;entryDy=0;fontFamily=Architects Daughter;fontSource=https%3A%2F%2Ffonts.googleapis.com%2Fcss%3Ffamily%3DArchitects%2BDaughter;" edge="1" parent="1" source="DI8kiA9vDWtVcM_8yvdp-22" target="DI8kiA9vDWtVcM_8yvdp-15">
          <mxGeometry relative="1" as="geometry">
            <Array as="points">
              <mxPoint x="1505" y="1536" />
            </Array>
          </mxGeometry>
        </mxCell>
        <mxCell id="DI8kiA9vDWtVcM_8yvdp-19" value="&lt;font style=&quot;font-size: 18px;&quot;&gt;Join&lt;/font&gt;" style="edgeLabel;html=1;align=center;verticalAlign=middle;resizable=0;points=[];sketch=1;hachureGap=4;jiggle=2;curveFitting=1;fontFamily=Architects Daughter;fontSource=https%3A%2F%2Ffonts.googleapis.com%2Fcss%3Ffamily%3DArchitects%2BDaughter;" vertex="1" connectable="0" parent="DI8kiA9vDWtVcM_8yvdp-18">
          <mxGeometry x="0.3252" y="-1" relative="1" as="geometry">
            <mxPoint as="offset" />
          </mxGeometry>
        </mxCell>
        <mxCell id="DI8kiA9vDWtVcM_8yvdp-20" style="edgeStyle=orthogonalEdgeStyle;rounded=0;sketch=1;hachureGap=4;jiggle=2;curveFitting=1;orthogonalLoop=1;jettySize=auto;html=1;exitX=0.25;exitY=1;exitDx=0;exitDy=0;entryX=0.5;entryY=0;entryDx=0;entryDy=0;fontFamily=Architects Daughter;fontSource=https%3A%2F%2Ffonts.googleapis.com%2Fcss%3Ffamily%3DArchitects%2BDaughter;" edge="1" parent="1" source="DI8kiA9vDWtVcM_8yvdp-22" target="DI8kiA9vDWtVcM_8yvdp-9">
          <mxGeometry relative="1" as="geometry">
            <Array as="points">
              <mxPoint x="1015" y="1536" />
            </Array>
          </mxGeometry>
        </mxCell>
        <mxCell id="DI8kiA9vDWtVcM_8yvdp-21" value="&lt;font style=&quot;font-size: 18px;&quot;&gt;&lt;b&gt;Join&lt;/b&gt;&lt;/font&gt;" style="edgeLabel;html=1;align=center;verticalAlign=middle;resizable=0;points=[];sketch=1;hachureGap=4;jiggle=2;curveFitting=1;fontFamily=Architects Daughter;fontSource=https%3A%2F%2Ffonts.googleapis.com%2Fcss%3Ffamily%3DArchitects%2BDaughter;" vertex="1" connectable="0" parent="DI8kiA9vDWtVcM_8yvdp-20">
          <mxGeometry x="0.4233" y="-1" relative="1" as="geometry">
            <mxPoint as="offset" />
          </mxGeometry>
        </mxCell>
        <mxCell id="DI8kiA9vDWtVcM_8yvdp-22" value="&lt;div&gt;&lt;span style=&quot;font-size: 18px;&quot;&gt;DIM&lt;/span&gt;&lt;/div&gt;" style="rounded=1;whiteSpace=wrap;html=1;sketch=1;hachureGap=4;jiggle=2;curveFitting=1;fontFamily=Architects Daughter;fontSource=https%3A%2F%2Ffonts.googleapis.com%2Fcss%3Ffamily%3DArchitects%2BDaughter;fillColor=#e6d0de;strokeColor=#996185;gradientColor=#d5739d;" vertex="1" parent="1">
          <mxGeometry x="950" y="1446" width="620" height="90" as="geometry" />
        </mxCell>
        <mxCell id="DI8kiA9vDWtVcM_8yvdp-23" value="&lt;div&gt;&lt;span style=&quot;font-size: 18px;&quot;&gt;DeepInsight&lt;/span&gt;&lt;/div&gt;" style="rounded=1;whiteSpace=wrap;html=1;sketch=1;hachureGap=4;jiggle=2;curveFitting=1;fontFamily=Architects Daughter;fontSource=https%3A%2F%2Ffonts.googleapis.com%2Fcss%3Ffamily%3DArchitects%2BDaughter;fillColor=#dae8fc;strokeColor=#6c8ebf;gradientColor=#7ea6e0;" vertex="1" parent="1">
          <mxGeometry x="710" y="1821" width="850" height="70" as="geometry" />
        </mxCell>
        <mxCell id="DI8kiA9vDWtVcM_8yvdp-24" style="edgeStyle=orthogonalEdgeStyle;rounded=0;sketch=1;hachureGap=4;jiggle=2;curveFitting=1;orthogonalLoop=1;jettySize=auto;html=1;exitX=0.5;exitY=1;exitDx=0;exitDy=0;entryX=0.358;entryY=-0.014;entryDx=0;entryDy=0;entryPerimeter=0;fontFamily=Architects Daughter;fontSource=https%3A%2F%2Ffonts.googleapis.com%2Fcss%3Ffamily%3DArchitects%2BDaughter;" edge="1" parent="1" source="DI8kiA9vDWtVcM_8yvdp-9" target="DI8kiA9vDWtVcM_8yvdp-23">
          <mxGeometry relative="1" as="geometry" />
        </mxCell>
        <mxCell id="DI8kiA9vDWtVcM_8yvdp-25" value="&lt;font style=&quot;font-size: 18px;&quot;&gt;&lt;b&gt;后置计算&lt;/b&gt;&lt;/font&gt;" style="edgeLabel;html=1;align=center;verticalAlign=middle;resizable=0;points=[];sketch=1;hachureGap=4;jiggle=2;curveFitting=1;fontFamily=Architects Daughter;fontSource=https%3A%2F%2Ffonts.googleapis.com%2Fcss%3Ffamily%3DArchitects%2BDaughter;" vertex="1" connectable="0" parent="DI8kiA9vDWtVcM_8yvdp-24">
          <mxGeometry x="-0.0955" y="5" relative="1" as="geometry">
            <mxPoint y="-1" as="offset" />
          </mxGeometry>
        </mxCell>
        <mxCell id="DI8kiA9vDWtVcM_8yvdp-26" style="edgeStyle=orthogonalEdgeStyle;rounded=0;sketch=1;hachureGap=4;jiggle=2;curveFitting=1;orthogonalLoop=1;jettySize=auto;html=1;exitX=0.5;exitY=1;exitDx=0;exitDy=0;entryX=0.649;entryY=-0.043;entryDx=0;entryDy=0;entryPerimeter=0;fontFamily=Architects Daughter;fontSource=https%3A%2F%2Ffonts.googleapis.com%2Fcss%3Ffamily%3DArchitects%2BDaughter;" edge="1" parent="1" source="DI8kiA9vDWtVcM_8yvdp-12" target="DI8kiA9vDWtVcM_8yvdp-23">
          <mxGeometry relative="1" as="geometry" />
        </mxCell>
        <mxCell id="DI8kiA9vDWtVcM_8yvdp-27" value="&lt;font style=&quot;font-size: 18px;&quot;&gt;&lt;b&gt;中置计算&lt;/b&gt;&lt;/font&gt;" style="edgeLabel;html=1;align=center;verticalAlign=middle;resizable=0;points=[];sketch=1;hachureGap=4;jiggle=2;curveFitting=1;fontFamily=Architects Daughter;fontSource=https%3A%2F%2Ffonts.googleapis.com%2Fcss%3Ffamily%3DArchitects%2BDaughter;fontSize=11;fontColor=default;labelBackgroundColor=default;fillColor=none;gradientColor=none;" vertex="1" connectable="0" parent="DI8kiA9vDWtVcM_8yvdp-26">
          <mxGeometry x="-0.0893" relative="1" as="geometry">
            <mxPoint y="-1" as="offset" />
          </mxGeometry>
        </mxCell>
        <mxCell id="DI8kiA9vDWtVcM_8yvdp-28" style="edgeStyle=orthogonalEdgeStyle;rounded=0;sketch=1;hachureGap=4;jiggle=2;curveFitting=1;orthogonalLoop=1;jettySize=auto;html=1;exitX=0.5;exitY=1;exitDx=0;exitDy=0;entryX=0.078;entryY=-0.014;entryDx=0;entryDy=0;entryPerimeter=0;fontFamily=Architects Daughter;fontSource=https%3A%2F%2Ffonts.googleapis.com%2Fcss%3Ffamily%3DArchitects%2BDaughter;" edge="1" parent="1" source="DI8kiA9vDWtVcM_8yvdp-4" target="DI8kiA9vDWtVcM_8yvdp-23">
          <mxGeometry relative="1" as="geometry" />
        </mxCell>
        <mxCell id="DI8kiA9vDWtVcM_8yvdp-29" value="&lt;font style=&quot;font-size: 18px;&quot;&gt;&lt;b&gt;后置计算&lt;/b&gt;&lt;/font&gt;" style="edgeLabel;html=1;align=center;verticalAlign=middle;resizable=0;points=[];sketch=1;hachureGap=4;jiggle=2;curveFitting=1;fontFamily=Architects Daughter;fontSource=https%3A%2F%2Ffonts.googleapis.com%2Fcss%3Ffamily%3DArchitects%2BDaughter;" vertex="1" connectable="0" parent="DI8kiA9vDWtVcM_8yvdp-28">
          <mxGeometry x="0.0194" y="4" relative="1" as="geometry">
            <mxPoint as="offset" />
          </mxGeometry>
        </mxCell>
      </root>
    </mxGraphModel>
  </diagram>
</mxfile>
